<svg width="81" height="81" viewBox="0 0 81 81" fill="none" xmlns="http://www.w3.org/2000/svg">
<rect width="81" height="81" rx="20" fill="#81BCF6"/>
<circle cx="24.5307" cy="48.5306" r="14.5306" fill="white" stroke="black" stroke-width="4"/>
<path d="M67.9999 36.001C61.2952 36.1581 55.4242 37.8305 51.2899 40.2734C46.8548 42.8942 45.0616 45.9413 45.0614 48.5186C45.0615 51.0959 46.8548 54.1428 51.2899 56.7637C55.4242 59.2066 61.2952 60.8789 67.9999 61.0361V65.0361C53.03 64.714 41.0615 57.4431 41.0614 48.5186C41.0617 39.5941 53.0301 32.3221 67.9999 32V36.001Z" fill="black"/>
<circle cx="27.5921" cy="49.1427" r="3.67346" fill="black"/>
<path d="M41 10.3333L27 18.4999L41 26.6666L52.6667 19.8614V28.4166H55V18.4999L41 10.3333ZM31.6655 23.7383V28.9999C32.7516 30.4495 34.1606 31.6261 35.7807 32.4361C37.4008 33.2462 39.1875 33.6675 40.9988 33.6666C42.8104 33.6677 44.5972 33.2465 46.2176 32.4364C47.8379 31.6263 49.2471 30.4497 50.3333 28.9999V23.7394L41 29.1843L31.6655 23.7383Z" fill="black"/>
<rect x="52.6667" y="29" width="2.33333" height="2.33333" fill="#FFBC00"/>
<path d="M45.557 62.6943C45.5477 63.9933 45.0227 65.2354 44.0976 66.1473C43.1725 67.0592 41.923 67.5663 40.624 67.557C39.3251 67.5476 38.083 67.0227 37.1711 66.0976C36.2591 65.1725 35.7521 63.923 35.7614 62.624L38.1358 62.641C38.131 63.3103 38.3923 63.954 38.8621 64.4306C39.3319 64.9073 39.9718 65.1777 40.6411 65.1825C41.3103 65.1873 41.9541 64.9261 42.4307 64.4563C42.9073 63.9864 43.1778 63.3465 43.1826 62.6773L45.557 62.6943Z" fill="black"/>
</svg>
