<svg width="currnet" height="current" viewBox="0 0 214 63" fill="none" xmlns="http://www.w3.org/2000/svg">
<rect width="63" height="63" rx="15.5556" fill="#81BCF6"/>
<circle cx="19.0798" cy="37.7458" r="11.3016" fill="white" stroke="black" stroke-width="3.11111"/>
<path d="M52.8896 28.0005C47.6749 28.1227 43.1081 29.4237 39.8926 31.3237C36.4433 33.3621 35.0489 35.7323 35.0488 37.7368C35.049 39.7413 36.4432 42.1116 39.8926 44.1499C43.1081 46.05 47.6748 47.3499 52.8896 47.4722V50.5835C41.4322 50.337 32.235 44.857 31.9443 38.0679L31.9375 37.7368C31.9377 30.7956 41.2465 25.1407 52.8896 24.8901V28.0005Z" fill="black"/>
<circle cx="21.4607" cy="38.2219" r="2.85713" fill="black"/>
<path d="M31.8889 8.0376L21 14.3894L31.8889 20.7413L40.963 15.4484V22.1024H42.7778V14.3894L31.8889 8.0376ZM24.6287 18.4637V22.5561C25.4735 23.6836 26.5694 24.5987 27.8295 25.2287C29.0895 25.8588 30.4791 26.1864 31.888 26.1857C33.297 26.1866 34.6867 25.859 35.947 25.2289C37.2073 24.5989 38.3033 23.6837 39.1481 22.5561V18.4646L31.8889 22.6995L24.6287 18.4637Z" fill="black"/>
<rect x="40.9629" y="22.5562" width="1.81481" height="1.81481" fill="#FFBC00"/>
<path d="M35.4328 48.7623C35.4255 49.7726 35.0172 50.7386 34.2977 51.4479C33.5782 52.1572 32.6063 52.5516 31.596 52.5443C30.5857 52.5371 29.6196 52.1288 28.9104 51.4092C28.2011 50.6897 27.8067 49.7179 27.8139 48.7076L29.6607 48.7208C29.657 49.2414 29.8602 49.742 30.2256 50.1127C30.591 50.4835 31.0888 50.6938 31.6093 50.6976C32.1298 50.7013 32.6305 50.4981 33.0012 50.1327C33.3719 49.7672 33.5823 49.2695 33.586 48.749L35.4328 48.7623Z" fill="black"/>
<path d="M90.32 50.24C94.82 50.24 97.73 47.06 97.73 42.17C97.73 37.25 94.82 34.07 90.32 34.07C85.85 34.07 82.94 37.25 82.94 42.17C82.94 47.06 85.85 50.24 90.32 50.24ZM90.32 30.71C96.95 30.71 101.6 35.45 101.6 42.17C101.6 48.89 96.95 53.63 90.32 53.63C83.72 53.63 79.07 48.89 79.07 42.17C79.07 35.45 83.72 30.71 90.32 30.71ZM114.753 45.71C114.753 43.4 113.733 42.11 111.753 42.11C110.073 42.14 108.663 43.49 108.723 45.71V53.42H104.853V38.81H108.723V40.88C109.653 39.62 111.213 38.87 112.563 38.87C114.903 38.87 118.623 40.31 118.623 45.65V53.42H114.753V45.71ZM128.794 53.45C124.624 53.45 121.714 50.45 121.714 46.16C121.714 41.84 124.624 38.81 128.794 38.81C133.384 38.81 134.854 42.56 134.914 42.74C135.814 44.66 135.544 47.15 135.544 47.54H125.404C125.764 49.16 127.264 50.24 128.794 50.24C130.774 50.24 131.674 49.22 131.944 48.71L135.094 49.97C134.404 51.65 132.334 53.45 128.794 53.45ZM131.974 44.93C131.644 43.25 130.654 42.02 128.794 42.02C127.084 42.02 125.764 43.16 125.404 44.93H131.974ZM149.816 53.63C143.306 53.63 138.746 48.89 138.746 42.17C138.746 35.42 143.306 30.68 149.816 30.71C152.876 30.71 155.636 32 157.616 34.04L155.126 36.68C153.926 35.12 151.916 34.07 149.786 34.07C145.436 34.07 142.616 37.25 142.616 42.17C142.616 47.06 145.436 50.24 149.786 50.24C152.156 50.24 153.896 49.07 154.946 47.75L157.616 50.27C155.636 52.31 153.146 53.66 149.816 53.63ZM160.891 31.73H164.761V53.39H160.891V31.73ZM174.373 53.51C170.323 53.51 167.593 50.45 167.593 46.16C167.593 41.87 170.323 38.84 174.373 38.84C175.693 38.84 177.283 39.38 178.363 40.76V38.81H182.233V53.42H178.363V51.59C177.283 53 175.693 53.51 174.373 53.51ZM174.823 50.3C176.773 50.3 178.363 48.56 178.393 46.16C178.363 43.76 176.773 42.02 174.823 42.02C172.753 42.02 171.463 43.61 171.463 46.16C171.463 48.71 172.753 50.3 174.823 50.3ZM188.729 48.08C189.239 49.52 190.679 50.24 191.579 50.24C192.869 50.24 193.619 49.79 193.619 49.04C193.619 48.35 192.539 47.99 191.159 47.48C189.149 46.76 186.329 45.77 186.329 42.92C186.329 40.22 188.759 38.66 191.879 38.66C193.739 38.66 196.379 39.74 197.159 42.38L194.009 43.58C193.499 42.05 192.419 41.9 191.879 41.9C190.769 41.9 190.199 42.29 190.199 42.92C190.199 43.58 191.219 43.91 192.629 44.42C194.669 45.14 197.459 46.16 197.459 48.95C197.459 51.71 195.119 53.48 191.579 53.48C189.299 53.48 186.719 51.95 185.759 49.76L188.729 48.08ZM202.821 48.08C203.331 49.52 204.771 50.24 205.671 50.24C206.961 50.24 207.711 49.79 207.711 49.04C207.711 48.35 206.631 47.99 205.251 47.48C203.241 46.76 200.421 45.77 200.421 42.92C200.421 40.22 202.851 38.66 205.971 38.66C207.831 38.66 210.471 39.74 211.251 42.38L208.101 43.58C207.591 42.05 206.511 41.9 205.971 41.9C204.861 41.9 204.291 42.29 204.291 42.92C204.291 43.58 205.311 43.91 206.721 44.42C208.761 45.14 211.551 46.16 211.551 48.95C211.551 51.71 209.211 53.48 205.671 53.48C203.391 53.48 200.811 51.95 199.851 49.76L202.821 48.08Z" fill="#81BBF6"/>
</svg>
